# xmcd
#
# Track frame offsets: 
#        150
#        14971
#        25865
#        45960
#        60126
#        74829
#        87244
#        99151
#        113413
#        124880
#        136616
#        147928
#        161498
#        174092
#        188908
#        200300
#        213622
#        227186
#        240780
#        252873
#        266166
#        280375
#        291913
#        304265
#        319762
#
# Disc length: 4428 seconds
#
# Revision: 0
# Processed by: cddbd v1.5.2PL0 Copyright (c) Steve Scherf et al.
# Submitted via: ExactAudioCopy v0.99pb5
#
DISCID=60114a19
DTITLE=Various Artist - Drunk - CD4
DYEAR=1960
DGENRE=Blues
TTITLE0=Amos Milburn - One Bourbon, One Scotch, One Beer (1953)
TTITLE1=Webb Pierce - There Stands The Glass (1953)
TTITLE2=Frank Sinatra - One For My Baby (And One More For The Road) (1
TTITLE2=958)
TTITLE3=Nina Simone - Gin House Blues (1961)
TTITLE4=Louvin Brothers - The Drunkard's Doom (1960)
TTITLE5=Johnny 'Guitar' Watson - Gettin' Drunk (1954)
TTITLE6=Dean Martin - Hey, Brother, Pour The Wine (1954)
TTITLE7=Ernest Tubb - Warm Red Wine (1949)
TTITLE8=Hank Thompson - A Broken Heart And A Glass Of Beer (1950)
TTITLE9=Joe Liggins - Whiskey, Gin and Wine (1951)
TTITLE10=Calvin Boze - Waiting and Drinking (1950)
TTITLE11=Louis Jordan - What's The Use Of Getting Sober (1943)
TTITLE12=Sonny Terry and Brownie McGhee - Beer Garden Blues (1947)
TTITLE13=Coley Jones - Drunkard's Special (1929)
TTITLE14=Jimmy Liggins - No More Alcohol (1954)
TTITLE15=Bailes Brothers - Whiskey Is The Devil (In Liquid Form) (1947
TTITLE15=)
TTITLE16=Kitty Wells - Death At The Bar (1949)
TTITLE17=Hank Williams - Too Many Parties Too Many Pals (1950)
TTITLE18=The Kidds - Drunk Drunk Drunk (1954)
TTITLE19=Amos Milburn - Bad, Bad, Whiskey (1954)
TTITLE20=Eddie 'Cleanhead' Vinson - Juice Head Baby (1945)
TTITLE21=Big Joe Turner - Wine-O-Baby Boogie (1948)
TTITLE22=Wynonie Harris - Bloodshot Eyes (1951)
TTITLE23=Christine Kittrell - Sittin' Here Drinkin' (1952)
TTITLE24=Little Esther - Aged and Mellow Blues (1952)
EXTD=
EXTT0=
EXTT1=
EXTT2=
EXTT3=
EXTT4=
EXTT5=
EXTT6=
EXTT7=
EXTT8=
EXTT9=
EXTT10=
EXTT11=
EXTT12=
EXTT13=
EXTT14=
EXTT15=
EXTT16=
EXTT17=
EXTT18=
EXTT19=
EXTT20=
EXTT21=
EXTT22=
EXTT23=
EXTT24=
PLAYORDER=
